<svg width="1920" height="111" viewBox="0 0 1920 111" fill="none" xmlns="http://www.w3.org/2000/svg">
<path fill-rule="evenodd" clip-rule="evenodd" d="M0 0L79.5 4.17052C160.5 8.34104 319.5 16.6821 480 30.7977C640.5 45.2341 799.5 65.7659 960 69.9364C1120.5 74.1069 1279.5 61.5954 1440 57.7457C1600.5 53.5751 1759.5 57.7457 1840.5 59.6705L1920 61.5954V111H1840.5C1759.5 111 1600.5 111 1440 111C1279.5 111 1120.5 111 960 111C799.5 111 640.5 111 480 111C319.5 111 160.5 111 79.5 111H0V0Z" fill="#5706DC" fill-opacity="0.09"/>
<path fill-rule="evenodd" clip-rule="evenodd" d="M0 44.4L64 53.28C128 62.16 256 79.92 384 75.48C512 71.04 640 44.4 768 26.64C896 8.88 1024 0 1152 0C1280 0 1408 8.88 1536 24.42C1664 39.96 1792 62.16 1856 73.26L1920 84.36V111H1856C1792 111 1664 111 1536 111C1408 111 1280 111 1152 111C1024 111 896 111 768 111C640 111 512 111 384 111C256 111 128 111 64 111H0V44.4Z" fill="#8F29CE" fill-opacity="0.13"/>
</svg>
